{"accessors" : [{"bufferView" : 0, "byteOffset" : 0, "componentType" : 5123, "count" : 2694, "type" : "SCALAR", "max" : [1789], "min" : [0]}, {"bufferView" : 1, "byteOffset" : 0, "componentType" : 5126, "count" : 1790, "type" : "VEC3", "max" : [3.3727951049804688, 2.9152140617370605, 5.2618231773376465], "min" : [-3.3727970123291016, 1.3823870420455933, -4.102289199829102], "name" : "POSITION"}, {"bufferView" : 1, "byteOffset" : 12, "componentType" : 5126, "count" : 1790, "type" : "VEC2", "max" : [1, -0], "min" : [0, -1], "name" : "TEXCOORD_0"}, {"bufferView" : 1, "byteOffset" : 20, "componentType" : 5126, "count" : 1790, "type" : "VEC3", "max" : [1.0000038146972656, 0.9999299645423889, 0.8522385954856873], "min" : [-1.0000038146972656, -1.0000044107437134, -0.9999842643737793], "name" : "NORMAL"}], "asset" : {"generator" : "Aspose.3D 21.5.2", "version" : "2.0"}, "buffers" : [{"uri" : "data:application/octet-stream;base64,", "byteLength" : 91604}], "bufferViews" : [{"buffer" : 0, "byteOffset" : 0, "byteLength" : 5388, "target" : 34963}, {"buffer" : 0, "byteOffset" : 5392, "byteLength" : 86208, "byteStride" : 32, "target" : 34962}], "meshes" : [{"primitives" : [{"attributes" : {"POSITION" : 1, "TEXCOORD_0" : 2, "NORMAL" : 3}, "indices" : 0, "mode" : 4}]}], "nodes" : [{"mesh" : 0, "name" : "Low_poly_Ship_Plane"}], "scene" : 0, "scenes" : [{"nodes" : [0]}]}